<svg width="60" height="54" viewBox="0 0 60 54" fill="none" xmlns="http://www.w3.org/2000/svg">
<path d="M5.15353 42.5396C4.61164 42.5396 4.17352 42.9777 4.17352 43.5196V48.4888C4.17352 49.0307 4.61164 49.4689 5.15353 49.4689C5.69542 49.4689 6.13354 49.0307 6.13354 48.4888V43.5196C6.12201 42.9777 5.68389 42.5396 5.15353 42.5396Z" fill="url(#paint0_linear)"/>
<path d="M41.3247 12.3197C37.6353 8.63026 29.9105 9.33356 26.7629 9.80627C25.7714 9.95615 25.0566 10.7978 25.0566 11.8009V14.0491C25.0566 14.591 25.4947 15.0291 26.0366 15.0291C26.5785 15.0291 27.0166 14.591 27.0166 14.0491V11.8009C27.0166 11.7663 27.0396 11.7432 27.0627 11.7317C28.3194 11.5472 30.8213 11.2475 33.4039 11.4204C36.4477 11.6279 38.6498 12.3889 39.9527 13.6917C40.3332 14.0722 40.9557 14.0722 41.3362 13.6917C41.7052 13.3228 41.7052 12.7002 41.3247 12.3197Z" fill="url(#paint1_linear)"/>
<path d="M21.8502 43.3452C21.3083 43.3452 20.8702 43.7833 20.8702 44.3252V48.4989C20.8702 49.0408 21.3083 49.4789 21.8502 49.4789C22.3921 49.4789 22.8302 49.0408 22.8302 48.4989V44.3252C22.8187 43.7718 22.3806 43.3452 21.8502 43.3452Z" fill="url(#paint2_linear)"/>
<path d="M59.0076 34.1462C58.9961 33.4313 58.9731 32.7396 58.9731 32.0824C58.9731 31.5636 58.558 31.16 58.0507 31.16C54.0615 31.16 51.0292 30.0186 48.5043 27.5628C48.1353 27.2169 47.5704 27.2169 47.2014 27.5628C44.6765 30.0186 41.6442 31.16 37.655 31.16C37.1362 31.16 36.7327 31.5751 36.7327 32.0824C36.7327 32.7396 36.7211 33.4198 36.6981 34.1462C36.5597 40.8217 36.3983 49.9646 47.5358 53.8501C47.6396 53.8847 47.7318 53.8962 47.8356 53.8962C47.9393 53.8962 48.0316 53.8847 48.1353 53.8501C59.2844 49.9877 59.1229 40.8333 59.0076 34.1462ZM47.8586 51.9823C38.3007 48.5004 38.4505 40.9024 38.5774 34.1807C38.5889 33.7772 38.5889 33.3737 38.612 33.0047C42.3475 32.8549 45.3106 31.7134 47.8701 29.4882C50.4182 31.7134 53.4158 32.8549 57.1283 33.0047C57.1283 33.3852 57.1399 33.7772 57.1629 34.1807C57.2667 40.914 57.3935 48.5234 47.8586 51.9823Z" fill="url(#paint3_linear)"/>
<path d="M51.7067 36.6488L46.3109 42.0446L44.005 39.7387C43.5669 39.3006 42.8636 39.3006 42.414 39.7387C41.9643 40.1768 41.9758 40.8801 42.414 41.3298L45.4923 44.4082C45.7114 44.6272 45.9996 44.731 46.2763 44.731C46.5531 44.731 46.8413 44.6272 47.0604 44.4082L53.2517 38.2168C53.6898 37.7787 53.6898 37.0754 53.2517 36.6257C52.8366 36.2107 52.1333 36.2107 51.7067 36.6488Z" fill="url(#paint4_linear)"/>
<path d="M42.2441 31.8055L40.5608 31.2982V28.093C40.7568 27.9316 40.9413 27.7702 41.1257 27.5972C43.4201 25.4528 44.7345 22.409 44.7345 19.2729V16.7134C45.4263 15.203 45.7837 13.6119 45.7837 11.9748V1.54055C45.7837 0.998668 45.3455 0.560547 44.8037 0.560547H30.1958C25.0536 0.560547 20.8684 4.74576 20.8684 9.88792V11.9748C20.8684 13.6119 21.2143 15.2146 21.9061 16.7134V18.9155C21.9061 22.5588 23.5317 25.8448 26.0797 28.0123V31.2982L24.2696 33.2121C24.0736 33.4196 23.9814 33.6964 24.0044 33.9615L17.9976 36.1406C17.5594 36.302 17.1559 36.5096 16.787 36.7747L15.8415 36.302C18.6432 35.0799 19.5425 33.362 19.5771 33.2813C19.7155 33.0046 19.7155 32.6818 19.5771 32.405C18.8738 30.9984 18.7931 28.4158 18.7239 26.3521C18.7009 25.6603 18.6778 25.0146 18.6432 24.4266C18.3089 19.7456 14.7578 16.2176 10.365 16.2176C5.97228 16.2176 2.4212 19.7456 2.08684 24.4266C2.04072 25.0031 2.02919 25.6603 2.00613 26.3521C1.93696 28.4274 1.85625 30.9984 1.15295 32.405C1.0146 32.6818 1.0146 33.0046 1.15295 33.2813C1.19907 33.362 2.08684 35.0799 4.90004 36.302L2.28284 37.6164C0.864713 38.3082 0 39.7148 0 41.2828V48.4887C0 49.0306 0.438121 49.4687 0.980008 49.4687C1.52189 49.4687 1.96002 49.0306 1.96002 48.4887V41.2828C1.96002 40.4642 2.4212 39.7263 3.14756 39.3573L6.41041 37.7317L7.5403 38.8155C8.33583 39.5649 9.35043 39.9453 10.365 39.9453C11.3796 39.9453 12.4057 39.5649 13.1898 38.8155L14.3196 37.7432L15.3804 38.2736C14.8846 39.0691 14.5964 40.0145 14.5964 40.9945V48.5002C14.5964 49.0421 15.0345 49.4802 15.5764 49.4802C16.1182 49.4802 16.5564 49.0421 16.5564 48.5002V40.9945C16.5564 39.6571 17.398 38.4465 18.6663 37.9853L24.996 35.6794L27.6362 39.6341C27.9706 40.1413 28.5125 40.4642 29.112 40.5218C29.1812 40.5333 29.2504 40.5334 29.308 40.5334C29.8384 40.5334 30.3572 40.3258 30.7377 39.9453L32.3403 38.3427V48.5118C32.3403 49.0537 32.7784 49.4918 33.3203 49.4918C33.8622 49.4918 34.3003 49.0537 34.3003 48.5118V38.3427L35.9029 39.9453C36.2718 40.3143 36.7676 40.5218 37.2864 40.5334L38.0704 37.5241L37.3902 38.5503C37.3902 38.5618 37.3671 38.5733 37.3441 38.5849C37.3095 38.5849 37.298 38.5733 37.2864 38.5618L34.8422 36.1175L38.1396 32.6472L42.2441 31.8055ZM6.26052 34.7455C4.43886 34.0884 3.5165 33.2121 3.1245 32.7394C3.38967 32.0476 3.56262 31.2406 3.67791 30.3989C4.2198 31.6902 5.1191 32.7855 6.24899 33.5811V34.7455H6.26052ZM11.8523 37.3858C11.0222 38.1813 9.71937 38.1813 8.88925 37.3858L7.97842 36.5211C8.1283 36.2328 8.22054 35.91 8.22054 35.5641V34.5265C8.90078 34.734 9.62714 34.8493 10.3766 34.8493C11.126 34.8493 11.8523 34.734 12.5326 34.5265V35.5641C12.5326 35.91 12.6133 36.2328 12.7747 36.5211L11.8523 37.3858ZM10.365 32.9123C7.44806 32.9123 5.08451 30.5373 5.08451 27.6318C5.08451 27.0899 4.64639 26.6518 4.1045 26.6518C4.04686 26.6518 4.00074 26.6518 3.94309 26.6634C3.94309 26.5826 3.94309 26.4904 3.95462 26.4097C3.97768 25.741 4.00074 25.1069 4.03533 24.565C4.16215 22.8125 4.86545 21.1984 6.00687 20.0108C7.15982 18.8233 8.71631 18.1661 10.365 18.1661C12.0137 18.1661 13.5702 18.8233 14.7232 20.0108C15.8761 21.1868 16.5679 22.8125 16.6947 24.565C16.7293 25.1069 16.7524 25.741 16.7754 26.4097C16.7754 26.4674 16.7754 26.525 16.787 26.5826C15.7262 24.9455 14.0891 23.7464 11.9676 23.0661C10.0076 22.432 8.3243 22.4781 8.25513 22.4781C8.00148 22.4897 7.75936 22.5934 7.57488 22.7779L5.81087 24.5996C5.44193 24.9916 5.45346 25.6026 5.83393 25.9831C6.22593 26.3521 6.837 26.3405 7.21747 25.9601L8.68172 24.4382C9.93843 24.4958 14.0084 24.9685 15.5764 28.4504C15.1844 31.01 12.9822 32.9123 10.365 32.9123ZM14.4695 34.7455V33.5811C15.5994 32.7971 16.5103 31.7017 17.0406 30.3989C17.1559 31.2406 17.3288 32.0361 17.594 32.7279C17.2136 33.2121 16.2912 34.0884 14.4695 34.7455ZM23.8661 18.9155V16.4943C23.8661 16.3444 23.8315 16.2061 23.7738 16.0677C23.1512 14.7649 22.8284 13.3929 22.8284 11.9632V9.88792C22.8284 5.818 26.1374 2.52056 30.1958 2.52056H43.8237V11.9748C43.8237 13.3929 43.5008 14.7764 42.8782 16.0793C42.8091 16.2061 42.786 16.356 42.786 16.5059V19.2845C42.786 21.9247 41.7253 24.3805 39.7999 26.1906C39.5577 26.4212 39.3041 26.6288 39.0504 26.8248L39.0389 26.8363C37.2288 28.2083 35.0151 28.877 32.7092 28.7271C27.74 28.3928 23.8661 24.0923 23.8661 18.9155ZM29.3541 38.5503C29.3426 38.5618 29.3311 38.5733 29.2965 38.5733C29.2619 38.5733 29.2504 38.5503 29.2504 38.5387L26.2181 33.9846L27.1981 32.9585L31.7984 36.106L29.3541 38.5503ZM33.3203 34.7917L28.0398 31.1829V29.3613C29.4118 30.0991 30.9337 30.5603 32.5709 30.6641C32.8245 30.6756 33.0782 30.6872 33.3433 30.6872C35.2111 30.6872 37.0097 30.2375 38.6238 29.3958V31.1829L33.3203 34.7917Z" fill="url(#paint5_linear)"/>
<path d="M0.0668751 48.489C0.0668751 49.0309 0.504996 49.469 1.04688 49.469H40.5124C41.0543 49.469 41.4924 49.0309 41.4924 48.489C41.4924 47.9471 41.0543 47.509 40.5124 47.509H1.03535C0.504996 47.5205 0.0668751 47.9471 0.0668751 48.489Z" fill="url(#paint6_linear)"/>
<defs>
<linearGradient id="paint0_linear" x1="-0.0378174" y1="0.504782" x2="59.8995" y2="1.51509" gradientUnits="userSpaceOnUse">
<stop stop-color="#045EC7"/>
<stop offset="1" stop-color="#045EC7" stop-opacity="0.7"/>
</linearGradient>
<linearGradient id="paint1_linear" x1="-0.0378174" y1="0.504782" x2="59.8995" y2="1.51509" gradientUnits="userSpaceOnUse">
<stop stop-color="#045EC7"/>
<stop offset="1" stop-color="#045EC7" stop-opacity="0.7"/>
</linearGradient>
<linearGradient id="paint2_linear" x1="-0.0378174" y1="0.504782" x2="59.8995" y2="1.51509" gradientUnits="userSpaceOnUse">
<stop stop-color="#045EC7"/>
<stop offset="1" stop-color="#045EC7" stop-opacity="0.7"/>
</linearGradient>
<linearGradient id="paint3_linear" x1="-0.0378174" y1="0.504782" x2="59.8995" y2="1.51509" gradientUnits="userSpaceOnUse">
<stop stop-color="#045EC7"/>
<stop offset="1" stop-color="#045EC7" stop-opacity="0.7"/>
</linearGradient>
<linearGradient id="paint4_linear" x1="-0.0378174" y1="0.504782" x2="59.8995" y2="1.51509" gradientUnits="userSpaceOnUse">
<stop stop-color="#045EC7"/>
<stop offset="1" stop-color="#045EC7" stop-opacity="0.7"/>
</linearGradient>
<linearGradient id="paint5_linear" x1="-0.0378174" y1="0.504782" x2="59.8995" y2="1.51509" gradientUnits="userSpaceOnUse">
<stop stop-color="#045EC7"/>
<stop offset="1" stop-color="#045EC7" stop-opacity="0.7"/>
</linearGradient>
<linearGradient id="paint6_linear" x1="-0.0378174" y1="0.504782" x2="59.8995" y2="1.51509" gradientUnits="userSpaceOnUse">
<stop stop-color="#045EC7"/>
<stop offset="1" stop-color="#045EC7" stop-opacity="0.7"/>
</linearGradient>
</defs>
</svg>
