<svg width="94" height="45" viewBox="0 0 94 45" fill="none" xmlns="http://www.w3.org/2000/svg">
<path d="M70.7075 26.903C67.6044 26.903 65.153 29.2987 65.153 32.401C65.153 35.5032 67.5734 37.8989 70.7075 37.8989C73.8106 37.8989 76.262 35.5032 76.262 32.401C76.231 29.4216 73.6864 26.903 70.7075 26.903ZM73.252 34.7353C72.6004 35.4417 71.6694 35.841 70.6765 35.841C68.8456 35.841 67.3562 34.3667 67.3562 32.5545C67.3562 30.7423 68.8456 29.268 70.6765 29.268C72.5073 29.268 73.9967 30.7423 73.9967 32.5545C74.1209 33.2917 73.8416 34.121 73.252 34.7353Z" fill="url(#paint0_linear)"/>
<path d="M15.4411 26.903C12.338 26.903 9.88659 29.2987 9.88659 32.4009C9.88659 35.5032 12.338 37.8682 15.4411 37.8682C18.5442 37.8682 20.9956 35.4724 20.9956 32.3702C20.8094 29.4216 18.2649 26.903 15.4411 26.903ZM15.4411 35.841C13.6103 35.841 12.1208 34.3667 12.1208 32.5545C12.1208 30.7423 13.6103 29.268 15.4411 29.268C17.2719 29.268 18.7614 30.7423 18.7614 32.5545C18.7614 34.3053 17.2099 35.841 15.4411 35.841Z" fill="url(#paint1_linear)"/>
<path d="M46.131 21.8381H44.4243C43.8968 21.8381 43.3072 22.2374 43.3072 22.9438C43.3072 23.466 43.7106 24.0496 44.4243 24.0496H46.131C46.6586 24.0496 47.2481 23.6503 47.2481 22.9438C47.2481 22.4217 46.8447 21.8381 46.131 21.8381Z" fill="url(#paint2_linear)"/>
<path d="M29.7791 21.8381H28.0724C27.5448 21.8381 26.9553 22.2374 26.9553 22.9438C26.9553 23.466 27.3587 24.0496 28.0724 24.0496H29.7791C30.3066 24.0496 30.8962 23.6503 30.8962 22.9438C30.8651 22.4217 30.4928 21.8381 29.7791 21.8381Z" fill="url(#paint3_linear)"/>
<path d="M82.6244 26.0447H82.9037C83.0278 25.9525 83.1519 25.8911 83.3071 25.799C83.7415 25.5532 84.1449 25.2768 84.5173 24.9389C84.5794 24.8775 84.6414 24.8775 84.7035 24.8775C84.7655 24.8775 84.8276 24.9082 84.8897 24.9389C85.6034 25.6454 86.4722 26.1368 87.3411 26.5668V25.2768C87.3411 21.3453 84.4863 17.9052 80.5454 17.0759L67.5745 14.588H67.2952C67.1711 14.588 67.078 14.4958 67.047 14.4037C66.7057 12.9293 65.4334 11.9158 63.8819 11.9158H63.7267C63.6646 11.9158 63.6026 11.885 63.5715 11.8543L59.6617 8.47567C59.2272 8.04565 58.5446 8.22994 58.1412 8.62924C57.7378 9.02854 57.8929 9.73498 58.3273 10.1343L60.6857 11.7929C60.7477 11.8543 60.8098 11.9158 60.7788 12.0079C60.7477 12.1 60.7167 12.1615 60.6236 12.2229C60.1582 12.4379 59.5686 12.8679 59.3824 13.5744C59.3514 13.6665 59.2893 13.7279 59.2272 13.7587C59.1341 13.7894 59.041 13.7587 58.979 13.6972L52.959 8.59853C51.6247 7.43135 49.9801 6.63276 48.3044 6.2949C38.2504 3.77626 27.2035 4.11413 17.2116 7.30849C14.8843 8.1378 12.7121 9.79641 11.3778 11.7622C10.9124 12.5301 11.1296 13.5437 11.8433 14.1272L17.1495 18.7038C17.4288 18.9802 17.8632 19.1338 18.3597 19.1338H59.6306C59.6927 19.1338 59.7548 19.1645 59.8168 19.1952C60.4685 19.8402 61.2442 20.1474 62.2062 20.1474H64.068C65.8988 20.1474 67.3883 18.6731 67.3883 16.8609V16.7073C67.3883 16.6459 67.4194 16.5537 67.4814 16.523C67.5435 16.4616 67.6055 16.4616 67.6986 16.4616L79.1179 18.8266C79.2421 18.8574 79.3352 18.9495 79.3352 19.0724V22.7889C79.3041 24.6318 80.7315 26.0447 82.6244 26.0447ZM81.197 19.7174C81.197 19.5638 81.3211 19.4717 81.4453 19.4717H81.6004C81.6314 19.4717 81.6935 19.4717 81.7245 19.5024C83.5864 20.4238 84.7655 21.8981 85.1069 23.7411C85.1069 23.8025 85.1069 23.8946 85.0448 23.9561C84.9828 24.0175 84.9207 24.0482 84.8586 24.0482H82.4693C81.8176 24.0482 81.197 23.4339 81.197 22.7889V19.7174ZM23.4798 16.8609C23.4177 16.9223 23.3557 16.953 23.2936 16.953H18.5149C18.4528 16.953 18.3908 16.9223 18.3597 16.8916L13.581 12.8372C13.4879 12.7451 13.4569 12.6222 13.55 12.4993C15.5049 9.67355 18.4528 8.99782 21.8972 8.16851C21.9593 8.1378 22.0524 8.16851 22.0834 8.19923C22.1455 8.22994 22.1765 8.29137 22.2076 8.38352L23.5729 16.6459C23.5419 16.738 23.5419 16.7994 23.4798 16.8609ZM39.5848 16.8609C39.5848 17.0145 39.4606 17.1066 39.3365 17.1066H26.0243C25.9002 17.1066 25.8071 17.0145 25.7761 16.8916L24.2556 7.95351C24.1935 7.83065 24.2866 7.67707 24.4418 7.67707C31.1134 6.38704 36.2645 6.66348 38.4677 6.78634C38.8711 6.81705 39.1503 6.81705 39.3365 6.81705C39.4917 6.81705 39.5848 6.93991 39.5848 7.06277V16.8609ZM58.8549 16.8609C58.8549 17.0145 58.7307 17.1066 58.6066 17.1066H41.881C41.7259 17.1066 41.6328 16.9837 41.6328 16.8609V7.40064C41.6328 7.33921 41.6638 7.24706 41.7259 7.21635C41.788 7.15492 41.85 7.15492 41.9431 7.15492C44.1463 7.49278 46.0392 7.83065 47.5907 8.16851C48.8319 8.47567 50.0111 9.05925 51.4385 10.0728L58.7928 16.3387C58.8549 16.4002 58.8859 16.4616 58.8859 16.523V16.8609H58.8549ZM64.999 16.8609C64.999 17.5059 64.5335 17.9666 63.8819 17.9666H62.02C61.3373 17.9666 60.9029 17.3216 60.9029 16.8609V15.018C60.9029 14.373 61.3684 13.9122 62.02 13.9122H63.8819C64.5335 13.9122 64.999 14.373 64.999 15.018V16.8609Z" fill="url(#paint4_linear)"/>
<path d="M70.8606 22.8493C66.7956 22.8493 63.0719 25.4294 61.5514 29.2687C61.5204 29.3609 61.4273 29.4223 61.3032 29.4223H24.9972C24.9041 29.4223 24.78 29.3609 24.7489 29.2687C23.2595 25.3679 19.6289 22.8493 15.4397 22.8493C11.3747 22.8493 7.65099 25.4294 6.13048 29.2687C6.09945 29.3609 6.00636 29.4223 5.88223 29.4223H4.51688C4.39276 29.4223 4.29966 29.3609 4.26863 29.238L3.92729 28.0709L3.8342 27.6408C3.71008 26.9651 3.58596 26.4122 3.58596 25.8287V24.9994C3.58596 24.8458 3.71008 24.7536 3.8342 24.7536H5.19956C7.03037 24.7536 8.51985 23.2793 8.51985 21.4671V20.2999C8.51985 18.5492 7.24759 17.167 5.50986 17.0134C5.41677 17.0134 5.35471 16.952 5.29265 16.8599C5.26162 16.7677 5.26162 16.6756 5.29265 16.6141L9.20252 10.5326C10.692 8.07535 13.2365 6.10959 16.3396 5.03456C30.1173 0.30444 42.5606 2.11663 48.7667 3.62167C50.6286 3.95953 52.3663 4.78884 53.8248 6.04816C54.2592 6.47817 54.9419 6.29388 55.3453 5.89458C55.5935 5.67958 55.5935 5.37243 55.5625 5.18814C55.5315 4.9117 55.3763 4.63526 55.1591 4.42026C53.1111 2.94594 51.2802 2.0552 49.3253 1.62519C42.8709 0.0894349 29.9311 -1.66132 15.688 3.09951C12.4918 4.05168 9.57489 6.29388 7.61996 9.24252L3.18256 15.9998C2.06545 17.8427 1.5069 19.6242 1.5069 21.4364V25.7979C1.5069 26.4737 1.63102 27.3337 1.84823 28.4394L2.18957 29.4223C2.2206 29.5452 2.15854 29.6988 2.03442 29.7295C1.28968 30.0366 0.824219 30.9581 0.824219 31.6952V33.0467C0.824219 34.521 1.97236 35.6575 3.46183 35.6575H5.8512C5.94429 35.6575 6.03739 35.7189 6.09945 35.8111C7.65099 39.7733 11.2195 42.2305 15.4087 42.2305C19.5978 42.2305 23.1664 39.7733 24.7179 35.8111C24.7489 35.7189 24.842 35.6575 24.9662 35.6575H37.5957C38.1232 35.6575 38.7128 35.2582 38.7128 34.5517C38.7128 34.0296 38.3094 33.446 37.5957 33.446H25.4937C25.3385 33.446 25.2454 33.3231 25.2454 33.2003V31.5109C25.2454 31.3574 25.3696 31.2652 25.4937 31.2652H60.6205C60.7757 31.2652 60.8687 31.3881 60.8687 31.5109V33.2003C60.8687 33.3539 60.7446 33.446 60.6205 33.446H43.5536C43.0261 33.446 42.4365 33.8453 42.4365 34.5517C42.4365 35.0739 42.8399 35.6575 43.5536 35.6575H61.117C61.2101 35.6575 61.3032 35.7189 61.3652 35.8111C62.9478 39.7733 66.4853 42.2305 70.6745 42.2305C73.6844 42.2305 76.4772 40.9098 78.4011 38.5754C78.0288 37.8382 77.7495 37.0704 77.5633 36.3332C76.1669 38.729 73.5914 40.234 70.8606 40.234C66.5163 40.234 63.103 36.8554 63.103 32.5553C63.103 28.378 66.6715 24.8765 70.8606 24.8765C73.25 24.8765 75.6084 26.0437 77.1599 27.9787C77.222 27.9173 77.284 27.8866 77.3461 27.8866C78.0598 27.8866 78.8045 27.7637 79.5182 27.6101C77.7805 24.6922 74.5223 22.8493 70.8606 22.8493ZM3.92729 19.3171C3.95833 19.1942 4.05142 19.1328 4.17554 19.1328H5.19956C5.8512 19.1328 6.31666 19.5935 6.31666 20.2385V21.4057C6.31666 22.0507 5.8512 22.5114 5.19956 22.5114H3.8342C3.67905 22.5114 3.58596 22.3886 3.58596 22.2657C3.58596 21.2214 3.71008 20.2385 3.92729 19.3171ZM5.4478 33.5689C5.4478 33.7224 5.32368 33.8146 5.19956 33.8146H3.49286C3.36874 33.8146 3.24462 33.6917 3.24462 33.5689C3.1205 33.4767 3.05843 33.3539 3.05843 33.231V31.8795C3.05843 31.6031 3.27565 31.4495 3.49286 31.4495H5.19956C5.35471 31.4495 5.4478 31.5724 5.4478 31.6952V33.5689ZM15.4397 40.234C11.0954 40.234 7.68202 36.8554 7.68202 32.5553C7.68202 28.378 11.2506 24.8765 15.4397 24.8765C19.6599 24.8765 23.1974 28.4087 23.1974 32.5553C23.1974 36.7018 19.6289 40.234 15.4397 40.234Z" fill="url(#paint5_linear)"/>
<path d="M93.9792 28.8385C93.9792 28.2549 93.9482 27.702 93.9482 27.1799C93.9482 26.7498 93.6068 26.4427 93.2034 26.4427C89.9762 26.4427 87.5248 25.5212 85.5078 23.5555C85.1975 23.279 84.763 23.279 84.4527 23.5555C82.4047 25.5212 79.9533 26.4427 76.7571 26.4427C76.3226 26.4427 76.0123 26.7806 76.0123 27.1799C76.0123 27.702 76.0123 28.2549 75.9813 28.8385C75.8882 34.1829 75.7331 41.4931 84.732 44.5954C84.8251 44.6261 84.8872 44.6261 84.9803 44.6261C85.0733 44.6261 85.1354 44.6261 85.2285 44.5954C94.2274 41.4931 94.0723 34.1829 93.9792 28.8385ZM84.9803 43.0903C77.2536 40.2952 77.3777 34.2136 77.5018 28.8692C77.5018 28.562 77.5018 28.2242 77.5329 27.917C80.5428 27.7942 82.9322 26.8727 85.0113 25.0912C87.0593 26.8727 89.4797 27.7942 92.4897 27.917C92.4897 28.2242 92.4897 28.5313 92.5207 28.8692C92.5828 34.2443 92.6759 40.326 84.9803 43.0903Z" fill="url(#paint6_linear)"/>
<path d="M88.0852 30.8374L83.7408 35.1375L81.879 33.2946C81.5376 32.9567 80.948 32.9567 80.6067 33.2946C80.2343 33.6324 80.2654 34.216 80.6067 34.5539L83.0892 37.0111C83.2754 37.1954 83.4926 37.2568 83.7098 37.2568C83.927 37.2568 84.1753 37.1647 84.3304 37.0111L89.3264 32.066C89.6677 31.7281 89.6677 31.1445 89.3264 30.8066C89.0161 30.4688 88.4265 30.4688 88.0852 30.8374Z" fill="url(#paint7_linear)"/>
<defs>
<linearGradient id="paint0_linear" x1="0.771743" y1="-0.0425634" x2="83.8862" y2="2.50442" gradientUnits="userSpaceOnUse">
<stop stop-color="#033C80"/>
<stop offset="1" stop-color="#045EC7" stop-opacity="0.7"/>
</linearGradient>
<linearGradient id="paint1_linear" x1="0.771743" y1="-0.0425634" x2="83.8862" y2="2.50442" gradientUnits="userSpaceOnUse">
<stop stop-color="#033C80"/>
<stop offset="1" stop-color="#045EC7" stop-opacity="0.7"/>
</linearGradient>
<linearGradient id="paint2_linear" x1="0.771743" y1="-0.0425634" x2="83.8862" y2="2.50442" gradientUnits="userSpaceOnUse">
<stop stop-color="#033C80"/>
<stop offset="1" stop-color="#045EC7" stop-opacity="0.7"/>
</linearGradient>
<linearGradient id="paint3_linear" x1="0.771743" y1="-0.0425634" x2="83.8862" y2="2.50442" gradientUnits="userSpaceOnUse">
<stop stop-color="#033C80"/>
<stop offset="1" stop-color="#045EC7" stop-opacity="0.7"/>
</linearGradient>
<linearGradient id="paint4_linear" x1="0.771743" y1="-0.0425634" x2="83.8862" y2="2.50442" gradientUnits="userSpaceOnUse">
<stop stop-color="#033C80"/>
<stop offset="1" stop-color="#045EC7" stop-opacity="0.7"/>
</linearGradient>
<linearGradient id="paint5_linear" x1="0.771743" y1="-0.0425634" x2="83.8862" y2="2.50442" gradientUnits="userSpaceOnUse">
<stop stop-color="#033C80"/>
<stop offset="1" stop-color="#045EC7" stop-opacity="0.7"/>
</linearGradient>
<linearGradient id="paint6_linear" x1="0.771743" y1="-0.0425634" x2="83.8862" y2="2.50442" gradientUnits="userSpaceOnUse">
<stop stop-color="#033C80"/>
<stop offset="1" stop-color="#045EC7" stop-opacity="0.7"/>
</linearGradient>
<linearGradient id="paint7_linear" x1="0.771743" y1="-0.0425634" x2="83.8862" y2="2.50442" gradientUnits="userSpaceOnUse">
<stop stop-color="#033C80"/>
<stop offset="1" stop-color="#045EC7" stop-opacity="0.7"/>
</linearGradient>
</defs>
</svg>
