<svg width="57" height="52" viewBox="0 0 57 52" fill="none" xmlns="http://www.w3.org/2000/svg">
<path d="M37.6018 24.2955C37.537 24.2955 37.4615 24.285 37.3967 24.2745C37.3319 24.264 37.2672 24.2431 37.2024 24.2221C37.1376 24.2011 37.0837 24.1697 37.0189 24.1277C36.9649 24.0858 36.9109 24.0438 36.857 24.0019C36.8138 23.96 36.7706 23.9075 36.7274 23.8446C36.695 23.7922 36.6627 23.7293 36.6303 23.6664C36.6087 23.6035 36.5871 23.5406 36.5763 23.4777C36.5655 23.4148 36.5547 23.3414 36.5547 23.2785C36.5547 23.2156 36.5655 23.1422 36.5763 23.0793C36.5871 23.0163 36.6087 22.9534 36.6303 22.8905C36.6519 22.8276 36.6842 22.7752 36.7274 22.7123C36.7598 22.6599 36.8138 22.6074 36.857 22.555C36.9001 22.5131 36.9541 22.4711 37.0189 22.4292C37.0729 22.3977 37.1376 22.3663 37.2024 22.3348C37.2672 22.3139 37.3319 22.2929 37.3967 22.2824C37.5262 22.251 37.6666 22.251 37.8069 22.2824C37.8717 22.2929 37.9364 22.3139 38.0012 22.3348C38.066 22.3558 38.1199 22.3873 38.1847 22.4292C38.2387 22.4606 38.2927 22.5131 38.3466 22.555C38.3898 22.597 38.433 22.6494 38.4762 22.7123C38.5086 22.7647 38.5409 22.8276 38.5733 22.8905C38.5949 22.9534 38.6165 23.0163 38.6273 23.0793C38.6381 23.1422 38.6489 23.2156 38.6489 23.2785C38.6489 23.3414 38.6381 23.4148 38.6273 23.4777C38.6165 23.5406 38.5949 23.6035 38.5733 23.6664C38.5517 23.7293 38.5194 23.7817 38.4762 23.8446C38.433 23.8971 38.3898 23.9495 38.3466 24.0019C38.3035 24.0438 38.2495 24.0858 38.1847 24.1277C38.1307 24.1592 38.066 24.1906 38.0012 24.2221C37.9364 24.2431 37.8717 24.264 37.8069 24.2745C37.7421 24.285 37.6666 24.2955 37.6018 24.2955Z" fill="url(#paint0_linear)"/>
<path d="M15.6079 24.2953C15.3164 24.2953 15.0358 24.18 14.8307 23.9493C14.4528 23.53 14.496 22.8904 14.917 22.5234L25.9169 13.0871C26.3055 12.7516 26.8992 12.7516 27.2878 13.0871L35.3084 19.9651C35.7402 20.3321 35.7833 20.9717 35.3947 21.3911C35.0061 21.8105 34.3584 21.8524 33.9266 21.4749L26.597 15.1841L16.2879 24.0332C16.0936 24.2115 15.8454 24.2953 15.6079 24.2953Z" fill="url(#paint1_linear)"/>
<path d="M52.8382 21.4738L45.9943 15.812V5.71521C45.9943 5.15952 45.5301 4.70868 44.958 4.70868H39.539C38.9669 4.70868 38.5027 5.15952 38.5027 5.71521V9.61554L27.2761 0.336544C26.8875 0.0115167 26.3154 0.0115167 25.9268 0.336544L0.364694 21.4738C-0.0563028 21.8198 -0.121072 22.4279 0.213567 22.8578L3.40883 26.8944C3.58154 27.1146 3.84062 27.2509 4.13208 27.2823C4.41274 27.3138 4.7042 27.2194 4.9201 27.0412L7.21939 25.112V47.1614C7.21939 47.7171 7.68356 48.1679 8.25569 48.1679H40.5757L39.7836 47.1614C35.9789 43.7488 35.8513 38.9468 35.8513 38.3911V31.2475L45.9642 27.6757L45.9943 25.112L48.2936 27.0412C48.4879 27.1984 48.7254 27.2823 48.9736 27.2823C49.006 27.2823 49.0492 27.2823 49.0816 27.2823C49.3623 27.2509 49.6213 27.1146 49.8048 26.8944L53.0001 22.8578C53.3239 22.4279 53.2592 21.8198 52.8382 21.4738ZM35.8513 38.3911L38.6322 46.1444H9.29199V23.3715L26.6068 8.86064L43.9109 23.3715V29.4616L35.8513 31.2475V38.3911ZM48.8117 24.8184L27.2761 6.7532C26.8875 6.42818 26.3046 6.42818 25.916 6.7532L4.38036 24.8184L2.45888 22.3964L26.596 2.42301L38.8589 12.5617C39.172 12.8134 39.6038 12.8763 39.9708 12.7085C40.3378 12.5408 40.5753 12.1843 40.5753 11.7964V6.72175H43.9217V16.2733C43.9217 16.5669 44.0512 16.85 44.2887 17.0387L50.744 22.3755L48.8117 24.8184Z" fill="url(#paint2_linear)"/>
<path d="M56.9714 33.2226C56.9587 32.5453 56.946 31.9043 56.946 31.2875C56.946 30.8037 56.5392 30.4166 56.0306 30.4166C52.102 30.4166 49.1016 29.3402 46.6096 27.0301C46.2537 26.7036 45.6815 26.7036 45.3255 27.0301C42.8336 29.3402 39.8332 30.4166 35.9046 30.4166C35.396 30.4166 34.9892 30.8037 34.9892 31.2875C34.9892 31.9043 34.9765 32.5453 34.9638 33.2226C34.8366 39.4997 34.6713 48.099 45.6688 51.7395C45.7705 51.7757 45.8722 51.7878 45.9739 51.7878C46.0757 51.7878 46.1774 51.7757 46.2791 51.7395C57.2639 48.099 57.0986 39.4997 56.9714 33.2226ZM45.9612 49.9736C36.5148 46.7081 36.6674 39.5602 36.7946 33.2468C36.8073 32.8718 36.8073 32.4969 36.82 32.1462C40.507 32.001 43.4439 30.9367 45.9739 28.8443C48.4913 30.9367 51.4409 32.001 55.1279 32.1462C55.1279 32.509 55.1406 32.8718 55.1534 33.2468C55.2551 39.5723 55.3949 46.7202 45.9612 49.9736Z" fill="url(#paint3_linear)"/>
<path d="M49.659 34.2709L44.4839 39.9996L42.2744 37.5538C41.8593 37.0942 41.1771 37.0942 40.762 37.5538C40.3468 38.0134 40.3468 38.7685 40.762 39.2281L43.7276 42.511C43.9352 42.7408 44.217 42.8557 44.4839 42.8557C44.7508 42.8557 45.0325 42.7408 45.2401 42.511L51.1714 35.9452C51.5866 35.4856 51.5866 34.7305 51.1714 34.2709C50.7563 33.8113 50.0741 33.8113 49.659 34.2709Z" fill="url(#paint4_linear)"/>
<path d="M32.7646 48.1061H20.0591C19.5194 48.1061 19.0876 47.6867 19.0876 47.1624V29.4432C19.0876 28.919 19.5194 28.4996 20.0591 28.4996H32.7646C33.3043 28.4996 33.7361 28.919 33.7361 29.4432V47.1624C33.7361 47.6867 33.2935 48.1061 32.7646 48.1061ZM21.0306 46.2188H31.793V30.3869H21.0306V46.2188Z" fill="url(#paint5_linear)"/>
<defs>
<linearGradient id="paint0_linear" x1="-0.0321016" y1="0.0434678" x2="50.8473" y2="0.866851" gradientUnits="userSpaceOnUse">
<stop stop-color="#033C80"/>
<stop offset="1" stop-color="#045EC7" stop-opacity="0.7"/>
</linearGradient>
<linearGradient id="paint1_linear" x1="-0.0321016" y1="0.0434678" x2="50.8473" y2="0.866851" gradientUnits="userSpaceOnUse">
<stop stop-color="#033C80"/>
<stop offset="1" stop-color="#045EC7" stop-opacity="0.7"/>
</linearGradient>
<linearGradient id="paint2_linear" x1="-0.0321016" y1="0.0434678" x2="50.8473" y2="0.866851" gradientUnits="userSpaceOnUse">
<stop stop-color="#033C80"/>
<stop offset="1" stop-color="#045EC7" stop-opacity="0.7"/>
</linearGradient>
<linearGradient id="paint3_linear" x1="-0.0321016" y1="0.0434678" x2="50.8473" y2="0.866851" gradientUnits="userSpaceOnUse">
<stop stop-color="#033C80"/>
<stop offset="1" stop-color="#045EC7" stop-opacity="0.7"/>
</linearGradient>
<linearGradient id="paint4_linear" x1="-0.0321016" y1="0.0434678" x2="50.8473" y2="0.866851" gradientUnits="userSpaceOnUse">
<stop stop-color="#033C80"/>
<stop offset="1" stop-color="#045EC7" stop-opacity="0.7"/>
</linearGradient>
<linearGradient id="paint5_linear" x1="-0.0321016" y1="0.0434678" x2="50.8473" y2="0.866851" gradientUnits="userSpaceOnUse">
<stop stop-color="#033C80"/>
<stop offset="1" stop-color="#045EC7" stop-opacity="0.7"/>
</linearGradient>
</defs>
</svg>
