<svg width="57" height="28" viewBox="0 0 57 28" fill="none" xmlns="http://www.w3.org/2000/svg">
<path d="M44.4614 17.2953C42.4547 17.2953 40.8223 18.9279 40.8223 20.9345C40.8223 22.9412 42.4547 24.5737 44.4614 24.5737C46.468 24.5737 48.1005 22.9412 48.1005 20.9345C48.1007 18.9279 46.4681 17.2953 44.4614 17.2953ZM44.4614 22.927C43.3628 22.927 42.469 22.0331 42.469 20.9345C42.469 19.8358 43.3629 18.9421 44.4614 18.9421C45.5601 18.9421 46.4538 19.8359 46.4538 20.9345C46.4539 22.0333 45.5601 22.927 44.4614 22.927Z" fill="#12B1C7"/>
<path d="M9.3638 17.2953C7.35719 17.2953 5.72461 18.9279 5.72461 20.9345C5.72461 22.9412 7.35719 24.5737 9.3638 24.5737C11.3704 24.5737 13.003 22.9412 13.003 20.9345C13.003 18.9279 11.3704 17.2953 9.3638 17.2953ZM9.3638 22.927C8.2651 22.927 7.37135 22.0331 7.37135 20.9345C7.37135 19.8358 8.26521 18.9421 9.3638 18.9421C10.4624 18.9421 11.3563 19.8359 11.3563 20.9345C11.3563 22.0333 10.4625 22.927 9.3638 22.927Z" fill="#12B1C7"/>
<path d="M0 20.5233V21.4138C0 22.4086 0.80932 23.2179 1.80428 23.2179H3.32741C4.25178 25.6534 6.60838 27.3897 9.36393 27.3897C12.1195 27.3897 14.4762 25.6535 15.4005 23.2179H23.4314C23.8862 23.2179 24.2548 22.8493 24.2548 22.3946C24.2548 21.9398 23.8862 21.5712 23.4314 21.5712H15.7874C15.8277 21.1631 15.8284 20.7582 15.7939 20.3658H38.0312C37.9972 20.7523 37.997 21.1628 38.0378 21.5712H27.2739C26.8191 21.5712 26.4506 21.9398 26.4506 22.3946C26.4506 22.8493 26.8191 23.2179 27.2739 23.2179H38.4247C39.3491 25.6534 41.7057 27.3897 44.4612 27.3897C47.2169 27.3897 49.5735 25.6535 50.4978 23.2179H54.4046C55.3994 23.2179 56.2087 22.4086 56.2087 21.4138V20.5233C56.2087 19.8089 55.7904 19.1921 55.1867 18.8999V16.3512C55.1867 13.7452 53.3677 11.4623 50.7603 10.9307L42.5914 9.26419C42.5272 9.25112 42.4636 9.23389 42.4004 9.215C42.158 8.24079 41.2784 7.51589 40.2303 7.51589H40.1252L37.6035 5.34428C37.2588 5.04753 36.739 5.08629 36.4423 5.4309C36.1456 5.77551 36.1842 6.29533 36.5288 6.59207L37.9202 7.79024C37.529 8.00487 37.2071 8.33992 37.0076 8.72197L33.1897 5.43408C32.3191 4.68426 31.2711 4.15247 30.159 3.89613C23.8755 2.44732 16.8276 2.59762 10.4503 4.75595C8.92173 5.27336 7.60214 6.30202 6.73441 7.65279C6.39398 8.18283 6.49706 8.89554 6.97374 9.31073L10.3534 12.2547C10.587 12.4584 10.8865 12.5706 11.1969 12.5706H37.4085C37.8261 12.9898 38.3912 13.2301 38.9935 13.2301H40.2306C41.4616 13.2301 42.4692 12.2291 42.4692 10.9915V10.92L49.6818 12.3915V14.7837C49.6818 16.0411 50.7048 17.064 51.9621 17.064H53.5403V18.7194H50.5263C49.5993 16.1724 47.1715 14.4799 44.4615 14.4799C41.7627 14.4799 39.3275 16.1625 38.3969 18.7194H15.4286C14.4966 16.1586 12.0582 14.4799 9.36393 14.4799C6.66909 14.4799 4.23103 16.1591 3.29931 18.7194H2.43312L2.23408 17.9897C2.11815 17.5647 2.05942 17.1257 2.05942 16.6852V16.1267H2.88707C4.12136 16.1267 5.12555 15.1225 5.12555 13.8881V13.1626C5.12555 11.9917 4.2217 11.0297 3.07535 10.9335L5.64262 6.94403C6.6692 5.34878 8.22845 4.13381 10.033 3.52309C18.6002 0.623502 26.5029 1.7176 30.4511 2.62781C31.6116 2.89546 32.6833 3.39826 33.6363 4.12228C33.9985 4.39751 34.515 4.32681 34.79 3.96486C35.0651 3.60279 34.9946 3.08626 34.6325 2.81115C33.4927 1.94507 32.2103 1.34357 30.821 1.02322C26.7028 0.0737093 18.4576 -1.06672 9.50501 1.96329C7.34865 2.69302 5.4853 4.14534 4.25782 6.05282L1.46341 10.3954C0.780557 11.4567 0.412674 12.7017 0.412674 13.9701V15.3032V16.6851C0.412674 17.272 0.490949 17.8567 0.645304 18.4229L0.808332 19.0205C0.321774 19.3437 0 19.8964 0 20.5233H0ZM32.1149 6.68176L36.7547 10.6773V10.9238H26.1761V4.86859C27.5981 5.04369 28.8227 5.27786 29.789 5.50061C30.6418 5.69712 31.446 6.10562 32.1149 6.68176ZM8.29893 8.28108C9.53059 6.59185 11.1862 6.1536 13.5122 5.57636L14.4191 10.9238H11.3327L8.29893 8.28108ZM16.0893 10.9238L15.1219 5.21978C20.0476 4.25874 23.8055 4.69513 24.5292 4.70347V10.9238H16.0893ZM40.2303 11.5832H38.9931C38.6455 11.5832 38.4013 11.2885 38.4013 10.9914C38.4013 10.5345 38.4013 10.2104 38.4013 9.75437C38.4013 9.42809 38.6668 9.16253 38.9931 9.16253H40.2303C40.5567 9.16253 40.8221 9.42798 40.8221 9.75437V10.9914C40.8221 11.3177 40.5567 11.5832 40.2303 11.5832ZM44.4612 25.7429C41.7891 25.7429 39.6529 23.5633 39.6529 20.9347C39.6529 18.3173 41.7816 16.1264 44.4612 16.1264C47.1451 16.1264 49.2696 18.3208 49.2696 20.9347C49.2696 23.5648 47.1302 25.7429 44.4612 25.7429ZM51.3282 14.7835V12.8466C52.371 13.347 53.1439 14.2949 53.4243 15.4171H51.9619C51.6125 15.4171 51.3282 15.1329 51.3282 14.7835ZM54.3633 20.3659H54.4046C54.4913 20.3659 54.562 20.4366 54.562 20.5234V21.4139C54.562 21.5007 54.4913 21.5713 54.4046 21.5713H50.8847C50.9265 21.1527 50.9246 20.7446 50.8913 20.3659H54.3633ZM9.36393 25.7429C6.69182 25.7429 4.55566 23.5633 4.55566 20.9347C4.55566 18.2868 6.71279 16.1264 9.36393 16.1264C12.0084 16.1264 14.1722 18.28 14.1722 20.9347C14.1722 23.5713 12.0277 25.7429 9.36393 25.7429ZM2.93395 20.3659C2.89926 20.7607 2.90079 21.1738 2.94054 21.5713H1.80428C1.71744 21.5713 1.64674 21.5006 1.64674 21.4139V20.5233C1.64674 20.4365 1.71744 20.3658 1.80428 20.3658H2.93395V20.3659ZM3.4788 13.1623V13.8878C3.4788 14.2141 3.21335 14.4796 2.88707 14.4796H2.05953C2.07435 14.1778 1.99234 13.4806 2.26087 12.5705H2.88718C3.21346 12.5705 3.4788 12.836 3.4788 13.1623Z" fill="#12B1C7"/>
<path d="M28.8318 15.6875C29.2866 15.6875 29.6552 15.3189 29.6552 14.8641C29.6552 14.4094 29.2866 14.0408 28.8318 14.0408H27.7999C27.3451 14.0408 26.9766 14.4094 26.9766 14.8641C26.9766 15.3189 27.3451 15.6875 27.7999 15.6875H28.8318Z" fill="#12B1C7"/>
<path d="M18.5134 15.6875C18.9683 15.6875 19.3368 15.3189 19.3368 14.8641C19.3368 14.4094 18.9683 14.0408 18.5134 14.0408H17.4816C17.0267 14.0408 16.6582 14.4094 16.6582 14.8641C16.6582 15.3189 17.0267 15.6875 17.4816 15.6875H18.5134Z" fill="#12B1C7"/>
</svg>
