<svg version="1.1" id="Layer_1" xmlns="http://www.w3.org/2000/svg" xmlns:xlink="http://www.w3.org/1999/xlink" x="0px" y="0px"
	 width="100%" viewBox="0 0 496 496" enable-background="new 0 0 496 496" xml:space="preserve">
<path fill="#000000" opacity="1.000000" stroke="none" 
	d="
M195.533112,341.615417 
	C162.061188,323.485046 143.650269,295.709045 139.996216,258.239471 
	C139.693176,255.132172 137.642990,250.399994 143.923737,249.996170 
	C147.582550,249.760925 149.256805,250.863892 149.398438,254.983398 
	C150.831848,296.678223 182.565369,333.881073 223.804916,341.336487 
	C277.115997,350.974243 322.929779,315.550446 331.698456,267.496399 
	C340.981232,216.624878 307.151398,168.887894 255.993759,160.113083 
	C252.182693,159.459381 248.385834,159.284409 244.578323,159.083908 
	C240.680161,158.878647 240.716888,156.392090 240.639755,153.543243 
	C240.553574,150.359985 242.150085,149.586731 244.956268,149.625687 
	C268.433716,149.951660 288.773468,158.561432 306.676117,173.271622 
	C327.225708,190.156738 339.056610,212.289368 342.018921,238.385544 
	C348.891388,298.926971 305.705048,344.751953 255.507721,351.445465 
	C234.609818,354.232086 214.743744,351.192291 195.533112,341.615417 
z"/>
<path fill="#000000" opacity="1.000000" stroke="none" 
	d="
M323.430603,343.451416 
	C301.215973,362.529236 276.071625,373.453064 246.913696,374.305206 
	C241.269867,374.470154 239.096771,371.061371 241.021988,365.707886 
	C241.887054,363.302399 243.839218,363.831787 245.583054,363.676147 
	C261.102753,362.290863 276.240570,359.331207 290.229095,352.130981 
	C325.235596,334.112305 346.835388,305.664825 352.351074,266.776306 
	C360.897491,206.519150 320.323761,152.136200 262.623566,141.286194 
	C256.895325,140.209030 251.197922,138.995789 245.333145,139.328186 
	C240.317734,139.612427 240.896133,136.156189 240.777466,132.950165 
	C240.651917,129.558701 241.554703,127.586784 245.508240,127.757477 
	C268.647186,128.756485 290.218170,134.957153 309.390625,148.039902 
	C341.177185,169.730209 360.220276,199.841690 364.008820,238.146103 
	C367.933594,277.828156 355.610748,312.393433 326.547882,340.409485 
	C325.588043,341.334717 324.643127,342.275513 323.430603,343.451416 
z"/>
<path fill="#000000" opacity="1.000000" stroke="none" 
	d="
M139.441406,230.559341 
	C142.223312,223.726257 144.924652,217.280762 147.475571,210.776260 
	C148.329132,208.599762 149.672516,207.593033 151.986313,207.692535 
	C153.818573,207.771301 155.820190,207.496384 156.701523,209.634247 
	C160.610382,219.116058 164.463135,228.620987 168.478088,238.465485 
	C164.015579,239.658325 160.701904,240.525330 158.439056,235.636002 
	C156.752457,231.991776 147.856277,232.176666 146.221695,235.854492 
	C144.082108,240.668594 140.763351,239.524689 137.152130,238.719528 
	C136.787384,235.640854 138.544846,233.420837 139.441406,230.559341 
z"/>
<path fill="#000000" opacity="1.000000" stroke="none" 
	d="
M178.668625,239.778168 
	C177.622787,239.502457 176.957794,239.398804 176.336731,239.173843 
	C169.841492,236.820999 169.504257,235.307617 174.373764,229.721176 
	C176.590103,230.586594 178.842682,231.572662 181.168106,232.337128 
	C182.748047,232.856537 184.298737,232.256470 185.035294,230.835403 
	C185.983871,229.005310 184.340027,228.162247 183.093735,227.397903 
	C181.823563,226.618881 180.434921,226.035538 179.115692,225.333557 
	C174.952469,223.118256 172.255814,220.007904 173.349991,214.945877 
	C174.284378,210.623154 178.476562,207.290436 183.153137,207.120148 
	C185.649963,207.029251 188.092850,207.594040 190.415802,208.586395 
	C192.265625,209.376633 193.700226,210.370132 192.632858,212.706314 
	C191.721558,214.700912 190.942886,216.914993 187.955566,215.618362 
	C187.350830,215.355881 186.675507,215.261261 186.050903,215.038269 
	C184.356155,214.433243 182.549530,214.202637 181.774551,216.141403 
	C181.020599,218.027512 182.906250,218.644562 184.147736,219.360229 
	C185.584427,220.188400 187.117004,220.848190 188.585159,221.624191 
	C192.616608,223.755020 195.003006,226.833176 194.254913,231.666000 
	C193.555756,236.182602 190.736526,238.529419 186.447983,239.617477 
	C183.965622,240.247269 181.553253,240.425308 178.668625,239.778168 
z"/>
<path fill="#000000" opacity="1.000000" stroke="none" 
	d="
M251.706329,267.385925 
	C252.839417,263.881653 248.660477,265.426849 248.335999,263.135529 
	C251.081573,262.416504 253.751617,262.328583 256.533447,263.280243 
	C256.559601,266.822235 253.189987,268.733795 252.797531,272.660095 
	C261.383453,274.646912 259.192810,265.201569 263.817810,262.600830 
	C266.221222,266.311646 267.764496,270.297577 268.279785,275.068665 
	C265.154816,272.523254 262.928741,272.246918 259.395935,274.610352 
	C256.553375,276.511993 252.085159,275.844299 248.303864,274.806580 
	C247.850647,271.569916 250.727463,270.085114 251.706329,267.385925 
z"/>
<path fill="#000000" opacity="1.000000" stroke="none" 
	d="
M288.909424,272.947327 
	C286.671875,268.513397 287.476349,264.977570 291.542603,263.009491 
	C293.495300,262.064362 293.452759,259.506653 295.765076,258.985077 
	C297.030212,260.487823 296.704437,262.582092 298.393524,264.024261 
	C301.587494,266.751312 302.087708,270.489777 298.851440,273.535065 
	C295.833130,276.375244 292.314362,276.343903 288.909424,272.947327 
M295.690277,265.203552 
	C292.900330,264.362549 291.167023,265.596130 290.452515,268.185242 
	C289.970886,269.930664 290.675934,271.535553 292.366669,272.331726 
	C294.412018,273.294830 296.264191,272.760376 297.632416,270.960358 
	C299.410004,268.621735 298.030060,267.000397 295.690277,265.203552 
z"/>
<path fill="#000000" opacity="1.000000" stroke="none" 
	d="
M216.022995,266.954102 
	C216.480820,268.904999 220.686478,269.084839 218.426331,272.399078 
	C216.557373,275.139709 214.036865,275.784332 211.082977,275.230530 
	C207.859512,274.626221 206.280380,272.300568 206.147247,269.234528 
	C206.023117,266.376862 207.370972,263.962860 210.182831,263.029633 
	C212.984314,262.099823 215.833069,262.315552 217.820145,264.927490 
	C218.762024,266.165558 218.416534,267.116547 216.140625,266.755920 
	C213.760437,264.523895 211.759186,264.739655 209.903854,266.315979 
	C208.729706,267.313568 207.993622,268.752441 208.781204,270.314606 
	C209.754745,272.245667 211.208847,273.390015 213.723206,272.241394 
	C210.494202,268.637360 215.043854,268.645355 216.022995,266.954102 
z"/>
<path fill="#000000" opacity="1.000000" stroke="none" 
	d="
M235.099182,264.049011 
	C236.027145,265.183838 236.748871,266.072998 237.426071,266.907288 
	C239.720306,266.583008 238.440033,263.664886 240.948334,263.225433 
	C242.501663,267.227356 241.949661,271.178253 241.278702,275.282654 
	C237.968414,274.664276 238.304962,271.211060 235.936096,270.407623 
	C234.410767,271.449799 235.904007,273.812256 233.028275,275.087097 
	C232.437653,270.928680 232.198959,267.096832 233.257004,263.243866 
	C233.390457,262.757874 234.402100,263.365814 235.099182,264.049011 
z"/>
<path fill="#000000" opacity="1.000000" stroke="none" 
	d="
M196.653870,267.957275 
	C196.920944,265.838959 195.942123,263.573608 198.392303,262.912384 
	C200.318665,262.392548 202.343597,262.442902 203.942429,264.026062 
	C205.665115,265.731873 205.589996,267.700989 204.122025,269.330200 
	C202.401535,271.239655 204.719788,273.042664 204.022507,274.822845 
	C201.853729,275.217773 201.591690,272.663086 199.962006,272.406250 
	C198.747498,272.673431 199.127335,274.676117 197.426514,274.492279 
	C196.073624,272.664490 196.886520,270.462311 196.653870,267.957275 
z"/>
<path fill="#000000" opacity="1.000000" stroke="none" 
	d="
M191.759033,263.450684 
	C195.242172,266.331390 195.780350,269.401398 193.373962,272.849121 
	C191.299118,275.821869 188.275070,276.039917 185.377777,274.810547 
	C182.273468,273.493347 181.153488,270.669434 181.868774,267.353821 
	C182.737091,263.328857 185.658585,262.125031 191.759033,263.450684 
M185.219254,266.619354 
	C183.914566,268.527771 184.074142,270.339966 185.750122,271.896576 
	C186.790558,272.862885 188.177765,273.051483 189.426529,272.448456 
	C191.251587,271.567108 193.109528,270.264984 192.113800,267.952362 
	C190.862869,265.046997 188.566483,264.264130 185.219254,266.619354 
z"/>
<path fill="#000000" opacity="1.000000" stroke="none" 
	d="
M301.988861,269.031708 
	C302.150513,266.706390 301.400238,264.606903 303.131256,262.935974 
	C305.529114,263.527985 305.941223,266.105011 307.963928,267.502350 
	C309.585541,266.717773 307.957275,263.840027 310.555542,263.258026 
	C311.945068,267.197144 311.369690,271.136505 311.079132,275.273499 
	C307.650696,274.893158 307.902771,270.835327 305.129211,270.175507 
	C303.499786,271.152283 305.136169,273.532532 303.314301,274.452515 
	C301.440887,273.166687 302.151367,271.187347 301.988861,269.031708 
z"/>
<path fill="#000000" opacity="1.000000" stroke="none" 
	d="
M275.996155,262.657593 
	C278.983398,262.749207 281.183838,263.329590 281.778198,266.719269 
	C278.634277,267.119629 275.532440,263.014893 273.100037,267.200195 
	C271.329163,270.247253 273.761536,273.346039 277.297241,272.559052 
	C278.672424,272.252930 279.635162,270.539215 281.747986,271.546936 
	C280.984253,274.980988 278.484894,275.614502 275.577240,275.340088 
	C272.260498,275.027008 269.819702,273.265594 269.698730,269.787689 
	C269.564392,265.924713 271.158325,262.999725 275.996155,262.657593 
z"/>
<path fill="#000000" opacity="1.000000" stroke="none" 
	d="
M225.255890,272.540405 
	C223.712921,273.349121 222.515121,274.118378 220.448090,275.445892 
	C220.594299,270.022888 223.231415,266.525146 225.461563,262.034454 
	C228.780777,266.085510 229.756149,270.305237 231.133438,274.759613 
	C228.307587,274.840637 227.701630,272.091736 225.255890,272.540405 
z"/>
<path fill="#000000" opacity="1.000000" stroke="none" 
	d="
M283.896057,264.061523 
	C286.972290,265.801056 287.273499,270.912170 284.435211,275.155670 
	C282.814056,271.455780 283.672852,267.891541 283.896057,264.061523 
z"/>
<path fill="#000000" opacity="1.000000" stroke="none" 
	d="
M243.649460,269.252777 
	C243.896988,267.028992 242.992111,265.011505 244.946442,262.543884 
	C246.627945,267.022949 246.304718,270.619232 245.194412,274.896027 
	C243.173965,272.915741 243.840561,271.200104 243.649460,269.252777 
z"/>
</svg>