<svg width="75" height="48" viewBox="0 0 75 48" fill="none" xmlns="http://www.w3.org/2000/svg">
<path d="M74.8674 30.7479C74.8527 30.1306 74.8381 29.542 74.8381 28.9821C74.8381 28.5371 74.4719 28.1926 74.0324 28.1926C70.5461 28.1926 67.8947 27.2164 65.6828 25.1062C65.3606 24.8047 64.8625 24.8047 64.5403 25.1062C62.3284 27.2164 59.677 28.1926 56.1907 28.1926C55.7366 28.1926 55.385 28.5515 55.385 28.9821C55.385 29.542 55.3704 30.1306 55.3557 30.7479C55.2385 36.4757 55.092 44.3138 64.8332 47.6442C64.9211 47.6729 65.009 47.6873 65.0969 47.6873C65.1848 47.6873 65.2727 47.6729 65.3606 47.6442C75.1164 44.3281 74.9699 36.4757 74.8674 30.7479ZM65.1115 46.0364C56.7473 43.0505 56.8792 36.5331 56.9963 30.7766C57.011 30.432 57.011 30.0875 57.0256 29.7717C60.2922 29.6425 62.885 28.6663 65.1262 26.757C67.3528 28.6663 69.9748 29.6425 73.2268 29.7717C73.2268 30.1019 73.2414 30.432 73.2561 30.7766C73.344 36.5475 73.4611 43.0648 65.1115 46.0364Z" fill="url(#paint0_linear)"/>
<path d="M68.4796 32.8866L63.7628 37.509L61.7414 35.528C61.3605 35.1547 60.7453 35.1547 60.3498 35.528C59.9542 35.9012 59.9689 36.5041 60.3498 36.8917L63.0451 39.5331C63.2355 39.7198 63.4845 39.8059 63.7335 39.8059C63.9826 39.8059 64.2316 39.7198 64.422 39.5331L69.8419 34.2216C70.2228 33.8484 70.2228 33.2455 69.8419 32.8579C69.4757 32.5133 68.8605 32.5133 68.4796 32.8866Z" fill="url(#paint1_linear)"/>
<path d="M57.7734 41.572C52.9248 41.3423 49.0576 37.4089 49.0576 32.6142C49.0576 31.3509 49.3213 30.1163 49.8486 28.9823L52.5439 31.4945C52.4707 31.8677 52.4267 32.241 52.4267 32.6142C52.4267 35.2125 54.2139 37.4089 56.6455 38.0693L56.25 36.404V35.7293C55.3857 35.2125 54.7558 34.3512 54.5361 33.3463L56.0889 34.7819C56.1474 34.8249 56.1914 34.8824 56.25 34.9254V32.1835L50.2734 26.6136L48.0615 24.5464C48.5303 24.0296 49.0283 23.5559 49.5849 23.1252L51.7236 25.1206L56.2646 29.3411V28.9823L61.3916 28.3937L61.7871 28.164C60.8056 27.4032 59.5605 26.9581 58.2275 26.9581C57.7441 26.9581 57.2754 27.0156 56.8066 27.1304L54.1113 24.6182C55.3857 23.9866 56.792 23.6564 58.2275 23.6564C60.3955 23.6564 62.5049 24.4172 64.1601 25.7953C64.3506 25.9533 64.5849 26.0394 64.8193 26.0394C65.1123 26.0394 65.3906 25.9245 65.5957 25.6949C65.9619 25.2786 65.9033 24.6469 65.4785 24.288C63.457 22.5941 60.8789 21.661 58.2275 21.661C56.2207 21.661 54.2724 22.1778 52.5586 23.1683L51.3135 22.0055C53.1738 20.9719 55.3125 20.3833 57.583 20.3833C58.2568 20.3833 58.9306 20.4408 59.6045 20.5412C59.8974 20.5843 60.2051 20.4982 60.4248 20.3116L63.6328 17.584C64.1455 17.1534 64.5264 16.6078 64.7754 16.0049C65.6396 13.8516 65.6689 9.77464 64.043 7.93714C59.5605 2.92708 52.9101 0.443585 45.3223 0.989092C43.4619 1.11829 42.3779 3.14241 43.3447 4.72152L43.7988 5.45364H41.6748C41.1182 5.45364 40.6641 5.89866 40.6641 6.44417C40.6641 6.98968 41.1182 7.4347 41.6748 7.4347H44.956C45.4248 8.45394 45.6445 9.55931 45.6152 10.6647C43.5791 8.8846 40.957 7.89407 38.1592 7.89407C34.4824 7.89407 31.084 9.63109 28.9746 12.5596H21.665C21.0937 12.5596 20.5225 12.3586 20.083 12.0141L12.5977 6.15706C12.4219 6.01351 12.1875 5.94173 11.9678 5.94173H5.87402C4.18945 5.94173 2.8125 7.29114 2.8125 8.94202C2.8125 9.90384 3.2959 10.8226 4.08691 11.3825L6.26953 12.9185C6.72363 13.2343 7.35351 13.1338 7.69043 12.6888C8.01269 12.2438 7.91015 11.6265 7.45605 11.2963L5.27344 9.76029C5.00976 9.57367 4.84863 9.2722 4.84863 8.94202C4.84863 8.38216 5.30273 7.93714 5.87402 7.93714H11.6016L18.7646 13.5788C19.5703 14.2105 20.5957 14.5694 21.6211 14.5694H29.3115L35.8887 17.0385L39.5068 18.4023C39.3164 18.5028 36.8701 20.5987 32.9004 20.5987H30.6738C28.4326 20.5987 26.3086 21.7758 25.1807 23.7999L23.4961 22.6228L10.21 13.263C9.75586 12.9472 9.12597 13.0477 8.78906 13.4927C8.46679 13.9377 8.56933 14.5694 9.02343 14.8852L21.0644 23.3693L18.8672 24.69C16.8018 22.7663 14.0332 21.6753 11.1621 21.6753C5.02441 21.6466 0 26.5705 0 32.6142C0 38.6578 5.02441 43.5818 11.1914 43.5818C17.3584 43.5818 22.3828 38.6578 22.3828 32.6142C22.3828 31.6811 22.2656 30.7623 22.0312 29.8723L24.4336 28.4224V35.8872C24.4336 38.7296 26.792 41.0552 29.707 41.0552H34.5996V41.5864H27.9639C27.4072 41.5864 26.9531 42.0314 26.9531 42.5769C26.9531 43.1224 27.4072 43.5674 27.9639 43.5674H35.6103C36.167 43.5674 36.6211 43.1224 36.6211 42.5769V41.0409H45.9521C46.3183 41.0409 46.6699 40.8399 46.8457 40.5241C47.0215 40.2082 47.0068 39.8206 46.8164 39.5048C45.5273 37.5094 44.8389 35.1982 44.8389 32.8295C44.8389 30.3747 45.5713 28.0779 46.831 26.1399L48.3105 27.518C47.4756 29.0827 47.0361 30.8198 47.0361 32.5855C47.0361 38.6291 52.0605 43.5531 58.2275 43.5531C58.6084 43.5531 58.9892 43.5387 59.3555 43.4956L57.7734 41.572ZM11.1914 41.5864C6.13769 41.5864 2.03613 37.5668 2.03613 32.6142C2.03613 27.6616 6.13769 23.642 11.1914 23.642C13.3594 23.642 15.4394 24.4029 17.0801 25.7523L13.96 27.6328C13.1103 27.1735 12.1728 26.9438 11.1914 26.9438C7.99804 26.9438 5.40527 29.4847 5.40527 32.6142C5.40527 35.7437 7.99804 38.2846 11.1914 38.2846C14.2822 38.2846 16.8018 35.9016 16.9629 32.93L20.1855 30.992C20.2881 31.5375 20.3467 32.083 20.3467 32.6285C20.3467 37.5525 16.2305 41.5864 11.1914 41.5864ZM9.18457 34.021C9.75586 34.9541 10.7812 35.4853 11.8213 35.4853C12.3633 35.4853 12.9199 35.3417 13.418 35.0546L14.4287 34.4373C13.7842 35.5427 12.5684 36.2892 11.1768 36.2892C9.11133 36.2892 7.42676 34.6383 7.42676 32.6142C7.42676 30.5901 9.11133 28.9392 11.1768 28.9392C11.3672 28.9392 11.543 28.9535 11.7187 28.9823L10.2246 29.8867C9.55078 30.2886 9.05273 30.9203 8.84765 31.6667C8.62793 32.4563 8.74512 33.3176 9.18457 34.021ZM24.4482 26.0537L15.4102 31.5088C15.4102 31.5088 15.4102 31.5088 15.3955 31.5088L12.3486 33.3463C11.8506 33.6334 11.2061 33.4755 10.9131 33.0018C10.7666 32.7577 10.7227 32.4706 10.7959 32.1979C10.8691 31.9395 11.0303 31.7242 11.2793 31.5806L14.4727 29.657C14.4727 29.657 14.4727 29.657 14.4873 29.657L22.8662 24.6038L24.4922 25.7523C24.4775 25.8384 24.4629 25.9389 24.4482 26.0537ZM62.8271 15.3733C61.4502 15.1436 60.4101 13.9664 60.4101 12.5596C60.4101 11.1528 61.4648 9.97562 62.8418 9.74593C63.6035 11.4112 63.3691 14.2392 62.8271 15.3733ZM33.0176 13.8085L31.084 13.0908C32.8271 11.0666 35.376 9.90384 38.1152 9.90384C40.8252 9.90384 43.3301 11.0379 45.0879 13.019C44.0625 15.6173 42.0703 16.5074 41.499 16.9954L33.0176 13.8085ZM42.8027 32.8439C42.8027 35.0116 43.2861 37.1218 44.2236 39.0454H29.6777C27.8906 39.0454 26.4404 37.6243 26.4404 35.8729V26.7141C26.4404 24.6469 27.9932 22.9386 29.9853 22.6228C31.8017 22.3213 35.8594 23.398 40.4004 20.2111C43.6084 17.9573 46.5088 16.5217 47.417 12.3012C47.7685 10.6647 47.6514 8.98509 47.1094 7.4347H48.3105C48.8672 7.4347 49.3213 6.98968 49.3213 6.44417C49.3213 5.89866 48.8672 5.45364 48.3105 5.45364H46.1426L45.0732 3.70228C44.8828 3.40081 45.0879 2.99886 45.4541 2.97015C51.7969 2.52513 57.3926 4.34827 61.3916 8.10941C59.6191 8.84154 58.374 10.5642 58.374 12.574C58.374 14.5119 59.5459 16.1915 61.2451 16.9667L59.4433 18.4884C58.8281 18.4166 58.1982 18.3736 57.583 18.3736C49.4385 18.3736 42.8027 24.8479 42.8027 32.8439Z" fill="url(#paint2_linear)"/>
<defs>
<linearGradient id="paint0_linear" x1="-0.0421769" y1="0.870429" x2="66.7866" y2="2.44091" gradientUnits="userSpaceOnUse">
<stop stop-color="#033C80"/>
<stop offset="1" stop-color="#045EC7" stop-opacity="0.7"/>
</linearGradient>
<linearGradient id="paint1_linear" x1="-0.0421769" y1="0.870429" x2="66.7866" y2="2.44091" gradientUnits="userSpaceOnUse">
<stop stop-color="#033C80"/>
<stop offset="1" stop-color="#045EC7" stop-opacity="0.7"/>
</linearGradient>
<linearGradient id="paint2_linear" x1="-0.0421769" y1="0.870429" x2="66.7866" y2="2.44091" gradientUnits="userSpaceOnUse">
<stop stop-color="#033C80"/>
<stop offset="1" stop-color="#045EC7" stop-opacity="0.7"/>
</linearGradient>
</defs>
</svg>
