<svg width="81" height="49" viewBox="0 0 81 49" fill="none" xmlns="http://www.w3.org/2000/svg">
<path d="M80.9732 28.3691C80.9549 27.6166 80.9391 26.9009 80.9391 26.2194C80.9391 25.7906 80.661 25.4432 80.2832 25.3143C80.1415 25.2354 79.9788 25.1854 79.8056 25.1854C77.4022 25.1854 75.3294 24.7933 73.4954 23.9829C72.1809 23.3804 70.9897 22.5595 69.8903 21.4991C69.7775 21.3939 69.6463 21.3202 69.5072 21.2755C69.1346 21.0755 68.6702 21.1229 68.3475 21.4255C68.1874 21.5807 68.0221 21.7307 67.8595 21.8754C65.7525 17.2998 61.174 14.1214 55.8713 14.1214C54.5043 14.1214 53.1845 14.3319 51.9435 14.7239L47.0684 2.05487H52.7988C52.9694 2.05487 53.1058 2.19169 53.1058 2.36009C53.1058 3.32046 52.3292 4.09928 51.3767 4.09928C50.8179 4.09928 50.3639 4.5571 50.3639 5.12543C50.3639 5.69376 50.8179 6.15159 51.3767 6.15159C53.4469 6.15159 55.1314 4.45186 55.1314 2.36009C55.1314 1.0603 54.0845 0.00256949 52.7988 0.00256949H45.5886C45.2554 0.00256949 44.9405 0.170964 44.7542 0.449866C44.5653 0.728769 44.526 1.08661 44.6467 1.40235L47.9579 10.0141L43.7756 14.987C43.4135 15.4185 43.4633 16.0658 43.8884 16.4342C44.0799 16.5999 44.3134 16.6789 44.5443 16.6789C44.8303 16.6789 45.1137 16.5552 45.3157 16.3184L48.7923 12.1848L50.0622 15.4896C45.6752 17.6734 42.6473 22.249 42.6473 27.5297C42.6473 34.9207 48.5797 40.9329 55.8713 40.9329C56.9103 40.9329 57.9179 40.8066 58.8887 40.5777C60.2006 43.5114 62.5253 46.161 66.6 48.0317C67.3006 48.3606 68.0536 48.6685 68.8644 48.9474C68.9667 48.9816 69.069 48.9974 69.1687 49C69.174 49 69.1766 49 69.1819 49C69.2868 49 69.3944 48.9816 69.4993 48.9474C81.275 44.9059 81.0965 35.3443 80.9732 28.3691ZM55.8713 16.1737C60.5076 16.1737 64.4957 19.0443 66.196 23.1252C64.0549 24.4802 61.5702 25.138 58.5712 25.1801C57.9179 24.4092 56.9497 23.9172 55.8713 23.9172C55.7401 23.9172 55.6115 23.9251 55.4856 23.9382L52.6808 16.642C53.6909 16.3394 54.7614 16.1737 55.8713 16.1737ZM57.2882 26.9298C57.2829 27.335 57.275 27.7481 57.2645 28.177C57.0205 28.7111 56.4879 29.0848 55.8713 29.0848C55.0238 29.0848 54.3364 28.3875 54.3364 27.5271C54.3364 26.6694 55.0264 25.9695 55.8713 25.9695C56.5089 25.9695 57.0573 26.3668 57.2882 26.9298ZM55.8687 38.8779C49.6922 38.8779 44.6703 33.7866 44.6703 27.5271C44.6703 23.1173 47.1655 19.2863 50.7995 17.4077L53.6175 24.7355C52.8198 25.3985 52.3108 26.4036 52.3108 27.5271C52.3108 29.5163 53.9087 31.1344 55.8713 31.1344C56.3515 31.1344 56.8106 31.0371 57.2304 30.8608C57.2357 33.3709 57.3984 36.0652 58.1698 38.6385C57.4272 38.7937 56.6584 38.8779 55.8687 38.8779ZM59.4029 28.4059C59.4213 27.9876 59.4213 27.5666 59.437 27.1824C63.3806 27.0246 66.5082 25.8353 69.2133 23.512C71.9001 25.8379 75.067 27.0246 78.9896 27.1824C78.9896 27.585 79.008 27.9876 79.0237 28.4059C79.1287 35.4337 79.2704 43.3693 69.1924 46.9872C59.1012 43.3509 59.2613 35.4153 59.4029 28.4059Z" fill="url(#paint0_linear)"/>
<path d="M74.907 30.9397C74.4662 30.5214 73.7236 30.5214 73.2619 30.9739L67.5682 36.602L65.1281 34.1892C64.6689 33.734 63.9264 33.734 63.4488 34.1892C62.9713 34.6444 62.9897 35.3785 63.4488 35.8495L66.7023 39.0648C66.9332 39.291 67.2324 39.3963 67.5341 39.3963C67.8358 39.3963 68.1349 39.291 68.3658 39.0648L74.907 32.5974C75.3661 32.1474 75.3661 31.4133 74.907 30.9397Z" fill="url(#paint1_linear)"/>
<path d="M40.6768 18.6628L37.0455 22.9779C36.3056 22.5596 35.4555 22.3201 34.5503 22.3201C34.4112 22.3201 34.2748 22.3254 34.1409 22.3359L33.4483 22.3885L26.4689 6.14902H27.2193C29.2895 6.14902 30.974 4.44929 30.974 2.35752C30.974 1.05773 29.9271 0 28.6414 0H21.4286C20.1429 0 19.096 1.05773 19.096 2.35752C19.096 4.44666 20.7805 6.14902 22.8507 6.14902H24.2597L26.1724 10.6009L20.4499 16.3079C18.3719 14.9292 15.8898 14.1267 13.224 14.1267C5.93242 14.1241 0 20.1363 0 27.5272C0 34.9181 5.93242 40.9303 13.224 40.9303C18.9386 40.9303 23.8189 37.2362 25.6634 32.0791L34.5529 32.7316C37.384 32.7316 39.6877 30.3978 39.6877 27.5272C39.6877 26.3142 39.2757 25.196 38.5883 24.3119L42.2196 19.9942C42.5817 19.5627 42.5319 18.9154 42.1068 18.547C41.6791 18.1813 41.0389 18.2339 40.6768 18.6628ZM22.8507 4.09934C21.8956 4.09934 21.1216 3.31789 21.1216 2.36015C21.1216 2.19175 21.2607 2.05493 21.4286 2.05493H28.6388C28.8094 2.05493 28.9458 2.19175 28.9458 2.36015C28.9458 3.32052 28.1692 4.09934 27.2167 4.09934H22.8507ZM20.6205 19.0127C21.8799 20.1389 22.8901 21.5466 23.5513 23.1384L15.9003 23.7146L20.6205 19.0127ZM13.224 38.878C7.04754 38.878 2.02558 33.7867 2.02558 27.5272C2.02558 21.2677 7.05016 16.1764 13.224 16.1764C15.3204 16.1764 17.2856 16.7631 18.9675 17.784L12.7806 23.9462C11.0252 24.1672 9.66347 25.688 9.66347 27.5272C9.66347 29.44 11.1407 31.0108 13.0009 31.1292L23.5513 31.9212C21.8537 36.0048 17.8629 38.878 13.224 38.878ZM14.7589 27.5272C14.7589 28.3849 14.0688 29.0848 13.224 29.0848C12.3765 29.0848 11.689 28.3876 11.689 27.5272C11.689 26.6668 12.3791 25.9695 13.224 25.9695C14.0715 25.9695 14.7589 26.6694 14.7589 27.5272ZM24.1757 29.9005L16.3148 29.3111C16.6113 28.7849 16.7819 28.1744 16.7819 27.5245C16.7819 26.8746 16.6113 26.2669 16.3148 25.738L24.1757 25.1486C24.3384 25.9143 24.4224 26.7089 24.4224 27.5219C24.4224 28.3349 24.3384 29.1348 24.1757 29.9005ZM30.242 30.3557L26.2118 30.0531C26.3666 29.2348 26.4479 28.3902 26.4479 27.5272C26.4479 26.6642 26.3666 25.8196 26.2118 25.0013L30.242 24.6987C29.7198 25.5143 29.4155 26.4852 29.4155 27.5272C29.4155 28.5691 29.7198 29.54 30.242 30.3557ZM25.6634 22.9779C24.9156 20.8861 23.6693 19.0338 22.0688 17.5709L27.0409 12.6164L31.3099 22.5517L25.6634 22.9779ZM34.5503 30.6819C32.8343 30.6819 31.4384 29.2664 31.4384 27.5272C31.4384 25.788 32.8343 24.3724 34.5503 24.3724C34.9517 24.3724 35.3374 24.4487 35.689 24.5908L33.7789 26.8589C33.4168 27.2904 33.4666 27.9376 33.8917 28.306C34.0832 28.4718 34.3167 28.5507 34.5476 28.5507C34.8336 28.5507 35.117 28.427 35.319 28.1902L37.2265 25.9222C37.502 26.3931 37.6595 26.9404 37.6595 27.5245C37.6621 29.2664 36.2662 30.6819 34.5503 30.6819Z" fill="url(#paint2_linear)"/>
<defs>
<linearGradient id="paint0_linear" x1="-0.0456182" y1="-0.0467351" x2="72.2332" y2="1.70688" gradientUnits="userSpaceOnUse">
<stop stop-color="#033C80"/>
<stop offset="1" stop-color="#045EC7" stop-opacity="0.7"/>
</linearGradient>
<linearGradient id="paint1_linear" x1="-0.0456182" y1="-0.0467351" x2="72.2332" y2="1.70688" gradientUnits="userSpaceOnUse">
<stop stop-color="#033C80"/>
<stop offset="1" stop-color="#045EC7" stop-opacity="0.7"/>
</linearGradient>
<linearGradient id="paint2_linear" x1="-0.0456182" y1="-0.0467351" x2="72.2332" y2="1.70688" gradientUnits="userSpaceOnUse">
<stop stop-color="#033C80"/>
<stop offset="1" stop-color="#045EC7" stop-opacity="0.7"/>
</linearGradient>
</defs>
</svg>
