<svg width="53" height="49" viewBox="0 0 53 49" fill="none" xmlns="http://www.w3.org/2000/svg">
<path d="M24.8382 33.6307C24.3638 33.6307 23.9434 33.3049 23.8032 32.8331L18.7364 15.5013L16.451 22.6003C16.3 23.0608 15.8904 23.3641 15.4268 23.3641H1.07805C0.48512 23.3641 0 22.8586 0 22.2408C0 21.623 0.48512 21.1176 1.07805 21.1176H14.6506L17.7662 11.4688C17.9171 11.0083 18.3375 10.705 18.8011 10.705C19.2647 10.7162 19.6851 11.0307 19.8145 11.5025L24.8274 28.6322L26.7786 21.8477C26.9188 21.3759 27.3392 21.0502 27.8136 21.0502H34.3681C34.961 21.0502 35.4461 21.5557 35.4461 22.1734C35.4461 22.7912 34.961 23.2967 34.3681 23.2967H28.6113L25.8731 32.8331C25.7329 33.3049 25.3125 33.6307 24.8382 33.6307Z" fill="url(#paint0_linear)"/>
<path d="M52.9764 28.98C52.9656 28.3286 52.9441 27.6883 52.9441 27.0817C52.9441 26.61 52.5775 26.2393 52.1356 26.2393C48.6211 26.2393 45.9476 25.1946 43.716 22.9369C43.3926 22.6223 42.8967 22.6223 42.5625 22.9369C40.3417 25.1946 37.6682 26.2393 34.143 26.2393C33.6902 26.2393 33.3344 26.6212 33.3344 27.0817C33.3344 27.6883 33.3237 28.3061 33.3021 28.98C33.1835 35.1131 33.0326 43.5151 42.8536 47.0759C42.9398 47.1096 43.0261 47.1208 43.1231 47.1208C43.2093 47.1208 43.2956 47.1096 43.3926 47.0759C53.2244 43.5264 53.0842 35.1243 52.9764 28.98ZM43.1554 45.3573C34.7251 42.156 34.8653 35.1805 34.9731 29.0025C34.9839 28.6318 34.9839 28.2612 35.0054 27.9242C38.2935 27.7894 40.9131 26.7335 43.1662 24.6892C45.4086 26.7335 48.0605 27.7782 51.327 27.9242C51.327 28.2724 51.3378 28.6318 51.3594 29.0025C51.4456 35.1917 51.5534 42.1785 43.1554 45.3573Z" fill="url(#paint1_linear)"/>
<path d="M46.5474 31.2721L41.7931 36.2257L39.7556 34.1027C39.3675 33.6983 38.753 33.6983 38.3541 34.1027C37.9552 34.5071 37.966 35.1473 38.3541 35.5629L41.0708 38.3935C41.2649 38.5957 41.5128 38.6856 41.7608 38.6856C42.0087 38.6856 42.2567 38.5957 42.4507 38.3935L47.9057 32.7099C48.2938 32.3055 48.2938 31.6652 47.9057 31.2496C47.5392 30.8677 46.9139 30.8677 46.5474 31.2721Z" fill="url(#paint2_linear)"/>
<path d="M34.6498 36.6407V36.6295L26.2195 45.4021L7.82807 26.273C7.76338 26.1495 7.68792 26.0371 7.58012 25.9473C4.77721 23.3975 3.17092 19.5672 3.17092 15.4223C3.17092 8.12116 8.10836 2.19035 14.1777 2.19035C20.1717 2.19035 25.2924 10.3452 25.3463 10.4238C25.7344 11.0416 26.7262 11.0416 27.1035 10.4238C27.1574 10.3452 32.2781 2.19035 38.272 2.19035C44.3414 2.19035 49.2788 8.13239 49.2788 15.4223C49.2788 18.8595 48.1684 22.1282 46.1525 24.6331C46.1201 24.6668 46.0986 24.7005 46.077 24.7454C45.98 24.8577 45.8722 24.97 45.7644 25.0711L45.5811 25.2621L47.5216 26.3292C47.5863 26.2618 47.651 26.1944 47.7156 26.1158C47.7911 26.0371 47.8558 25.9473 47.8989 25.8574C50.1412 22.9931 51.381 19.2976 51.381 15.4223C51.3702 6.91927 45.4949 0 38.272 0C32.6985 0 28.0845 5.40287 26.2195 7.95267C24.3652 5.40287 19.7512 0 14.1777 0C6.95485 0 1.07952 6.91927 1.07952 15.4223C1.07952 20.0614 2.84751 24.3859 5.94149 27.3401C5.98461 27.4187 6.03852 27.4974 6.1032 27.5648L25.4864 47.716C25.6912 47.9294 25.9607 48.0305 26.2303 48.0305C26.4998 48.0305 26.7693 47.9294 26.9741 47.716L35.523 38.8198C35.0702 37.7303 34.6498 36.6407 34.6498 36.6407Z" fill="url(#paint3_linear)"/>
<defs>
<linearGradient id="paint0_linear" x1="-0.0298489" y1="-0.0458105" x2="47.279" y2="0.720378" gradientUnits="userSpaceOnUse">
<stop stop-color="#033C80"/>
<stop offset="1" stop-color="#045EC7" stop-opacity="0.7"/>
</linearGradient>
<linearGradient id="paint1_linear" x1="-0.0298489" y1="-0.0458105" x2="47.279" y2="0.720378" gradientUnits="userSpaceOnUse">
<stop stop-color="#033C80"/>
<stop offset="1" stop-color="#045EC7" stop-opacity="0.7"/>
</linearGradient>
<linearGradient id="paint2_linear" x1="-0.0298489" y1="-0.0458105" x2="47.279" y2="0.720378" gradientUnits="userSpaceOnUse">
<stop stop-color="#033C80"/>
<stop offset="1" stop-color="#045EC7" stop-opacity="0.7"/>
</linearGradient>
<linearGradient id="paint3_linear" x1="-0.0298489" y1="-0.0458105" x2="47.279" y2="0.720378" gradientUnits="userSpaceOnUse">
<stop stop-color="#033C80"/>
<stop offset="1" stop-color="#045EC7" stop-opacity="0.7"/>
</linearGradient>
</defs>
</svg>
